# xmcd
#
# Track frame offsets:
#	150
#	15176
#	24390
#	39667
#	49956
#	58905
#	75019
#	86755
#	103637
#	124026
#	133446
#	150408
#	165573
#	175761
#	184798
#	201014
#	212834
#
# Disc length: 3080 seconds
#
# Revision: 1
# Processed by: cddbd v1.5.2PL0 Copyright (c) Steve Scherf et al.
# Submitted via: audiograbber 1.82.01
#
DISCID=d80c0611
DTITLE=Impaled Nazarene - Live in the name of Satan
DYEAR=1900
DGENRE=Black Metal
TTITLE0=Intro
TTITLE1=Sadegoat
TTITLE2=Chaosgoat law
TTITLE3=in the name of Satan
TTITLE4=Hate
TTITLE5=Cyberchrist
TTITLE6=Sadhu Satana
TTITLE7=Ghost riders
TTITLE8=Goat perversion
TTITLE9=Goatzied
TTITLE10=Mortification
TTITLE11=Intro
TTITLE12=Goatzied
TTITLE13=Chaosgoat law
TTITLE14=Condemned to Hell
TTITLE15=Heath darbs Lucifero
TTITLE16=False jehova, Satanic maso where, coaxo, Goatperversion, Soul rape
EXTD=
EXTT0=
EXTT1=
EXTT2=
EXTT3=
EXTT4=
EXTT5=
EXTT6=
EXTT7=
EXTT8=
EXTT9=
EXTT10=
EXTT11=
EXTT12=
EXTT13=
EXTT14=
EXTT15=
EXTT16=
PLAYORDER=
